<svg xmlns="http://www.w3.org/2000/svg" version="1.1" xmlns:xlink="http://www.w3.org/1999/xlink" xmlns:svgjs="http://svgjs.dev/svgjs" viewBox="0 0 6.7467246883307395 2.716755816260428"><g transform="matrix(1,0,0,1,2.76739757062291,0.39631540813021415)"><g><path d=" M 0.0495 1.05 Q 0.036000000000000004 1.05 0.027 1.0402500000000001 Q 0.018000000000000002 1.0305 0.018000000000000002 1.0185 Q 0.018000000000000002 1.0110000000000001 0.0195 1.0050000000000001 L 0.3765 0.04049999999999998 Q 0.381 0.02400000000000002 0.3945 0.01200000000000001 Q 0.40800000000000003 0 0.432 0 L 0.624 0 Q 0.648 0 0.6615 0.01200000000000001 Q 0.675 0.02400000000000002 0.6795 0.04049999999999998 L 1.0365 1.0050000000000001 Q 1.038 1.0110000000000001 1.038 1.0185 Q 1.038 1.0305 1.029 1.0402500000000001 Q 1.02 1.05 1.0065 1.05 L 0.8505 1.05 Q 0.8280000000000001 1.05 0.8175 1.0395 Q 0.807 1.0290000000000001 0.804 1.02 L 0.7395 0.8520000000000001 L 0.3165 0.8520000000000001 L 0.252 1.02 Q 0.249 1.0290000000000001 0.23850000000000002 1.0395 Q 0.228 1.05 0.20550000000000002 1.05 L 0.0495 1.05 M 0.372 0.6585000000000001 L 0.6825 0.6585000000000001 L 0.528 0.22650000000000003 L 0.372 0.6585000000000001 M 1.2194692382812502 1.05 Q 1.2029692382812502 1.05 1.19246923828125 1.0395 Q 1.1819692382812501 1.0290000000000001 1.1819692382812501 1.0125 L 1.1819692382812501 0.03750000000000009 Q 1.1819692382812501 0.02100000000000013 1.19246923828125 0.010499999999999954 Q 1.2029692382812502 0 1.2194692382812502 0 L 1.66496923828125 0 Q 1.7894692382812503 0 1.8689692382812502 0.03600000000000003 Q 1.94846923828125 0.07200000000000006 1.9867192382812502 0.138 Q 2.0249692382812503 0.20400000000000007 2.0249692382812503 0.2925 Q 2.0249692382812503 0.348 2.00471923828125 0.39 Q 1.98446923828125 0.43200000000000005 1.95521923828125 0.4590000000000001 Q 1.92596923828125 0.486 1.8989692382812502 0.49950000000000006 Q 1.9574692382812502 0.5265000000000001 2.0017192382812503 0.5887500000000001 Q 2.04596923828125 0.651 2.04596923828125 0.7365 Q 2.04596923828125 0.8310000000000001 2.0039692382812504 0.9015000000000001 Q 1.9619692382812501 0.9720000000000001 1.8794692382812501 1.0110000000000001 Q 1.79696923828125 1.05 1.67846923828125 1.05 L 1.2194692382812502 1.05 M 1.42046923828125 0.8745 L 1.64996923828125 0.8745 Q 1.72346923828125 0.8745 1.76096923828125 0.83325 Q 1.7984692382812502 0.792 1.7984692382812502 0.7350000000000001 Q 1.7984692382812502 0.6765000000000001 1.76021923828125 0.63675 Q 1.7219692382812501 0.597 1.64996923828125 0.597 L 1.42046923828125 0.597 L 1.42046923828125 0.8745 M 1.42046923828125 0.4245 L 1.6364692382812502 0.4245 Q 1.7069692382812502 0.4245 1.7422192382812502 0.38925 Q 1.7774692382812503 0.354 1.7774692382812503 0.2985 Q 1.7774692382812503 0.243 1.7422192382812502 0.20925000000000005 Q 1.7069692382812502 0.1755 1.6364692382812502 0.1755 L 1.42046923828125 0.1755 L 1.42046923828125 0.4245" fill="#1c3423" fill-rule="nonzero"></path></g><g><path d=" M 0.234 1.931625 Q 0.16875 1.931625 0.1245 1.9113749999999998 Q 0.08025 1.891125 0.056625 1.8592499999999998 Q 0.033 1.827375 0.0315 1.792125 Q 0.0315 1.7861249999999997 0.036375 1.7812499999999998 Q 0.04125 1.7763749999999998 0.048 1.7763749999999998 L 0.08625000000000001 1.7763749999999998 Q 0.09525 1.7763749999999998 0.09975 1.7808749999999998 Q 0.10425 1.785375 0.10575 1.791375 Q 0.11025 1.809375 0.1245 1.827 Q 0.13875 1.844625 0.165375 1.85625 Q 0.192 1.867875 0.234 1.867875 Q 0.2985 1.867875 0.32887500000000003 1.8449999999999998 Q 0.35925 1.8221249999999998 0.35925 1.7838749999999999 Q 0.35925 1.7576249999999998 0.343125 1.7414999999999998 Q 0.327 1.7253749999999999 0.294 1.7126249999999998 Q 0.261 1.6998749999999998 0.2085 1.684875 Q 0.15375 1.6691249999999997 0.11775000000000001 1.650375 Q 0.08175 1.6316249999999999 0.064125 1.603875 Q 0.0465 1.5761249999999998 0.0465 1.533375 Q 0.0465 1.4928749999999997 0.06825 1.4609999999999999 Q 0.09 1.429125 0.13125 1.4103749999999997 Q 0.17250000000000001 1.391625 0.23025 1.391625 Q 0.27675 1.391625 0.311625 1.404 Q 0.34650000000000003 1.416375 0.36975 1.4369999999999998 Q 0.393 1.4576249999999997 0.405 1.4812499999999997 Q 0.417 1.5048749999999997 0.41775 1.527375 Q 0.41775 1.532625 0.41400000000000003 1.5374999999999999 Q 0.41025 1.5423749999999998 0.402 1.5423749999999998 L 0.36225 1.5423749999999998 Q 0.357 1.5423749999999998 0.351375 1.539375 Q 0.34575 1.5363749999999998 0.34275 1.5281249999999997 Q 0.33825 1.497375 0.30825 1.4763749999999998 Q 0.27825 1.4553749999999999 0.23025 1.4553749999999999 Q 0.1815 1.4553749999999999 0.151125 1.474125 Q 0.12075 1.4928749999999997 0.12075 1.532625 Q 0.12075 1.558125 0.135 1.5749999999999997 Q 0.14925 1.591875 0.18 1.604625 Q 0.21075 1.6173749999999998 0.26025 1.6316249999999999 Q 0.32025 1.6481249999999998 0.3585 1.6664999999999999 Q 0.39675 1.684875 0.415125 1.7122499999999998 Q 0.4335 1.7396249999999998 0.4335 1.7823749999999998 Q 0.4335 1.8296249999999998 0.40875 1.8629999999999998 Q 0.384 1.896375 0.339375 1.914 Q 0.29475 1.931625 0.234 1.931625 M 0.7282569580078125 1.931625 Q 0.6637569580078125 1.931625 0.6180069580078125 1.9094999999999998 Q 0.5722569580078125 1.8873749999999998 0.5475069580078125 1.8412499999999998 Q 0.5227569580078125 1.7951249999999999 0.5197569580078125 1.7253749999999999 Q 0.5190069580078125 1.6923749999999997 0.5190069580078125 1.662 Q 0.5190069580078125 1.6316249999999999 0.5197569580078125 1.5986249999999997 Q 0.5227569580078125 1.5296249999999998 0.5486319580078125 1.4834999999999998 Q 0.5745069580078125 1.4373749999999998 0.6206319580078126 1.4144999999999999 Q 0.6667569580078125 1.391625 0.7282569580078125 1.391625 Q 0.7890069580078125 1.391625 0.8351319580078125 1.4144999999999999 Q 0.8812569580078125 1.4373749999999998 0.9075069580078126 1.4834999999999998 Q 0.9337569580078124 1.5296249999999998 0.9360069580078125 1.5986249999999997 Q 0.9375069580078126 1.6316249999999999 0.9375069580078126 1.662 Q 0.9375069580078126 1.6923749999999997 0.9360069580078125 1.7253749999999999 Q 0.9337569580078124 1.7951249999999999 0.9086319580078125 1.8412499999999998 Q 0.8835069580078125 1.8873749999999998 0.8377569580078126 1.9094999999999998 Q 0.7920069580078125 1.931625 0.7282569580078125 1.931625 M 0.7282569580078125 1.867875 Q 0.7852569580078126 1.867875 0.8216319580078125 1.8333749999999998 Q 0.8580069580078125 1.7988749999999998 0.8610069580078126 1.721625 Q 0.8625069580078125 1.6878749999999998 0.8625069580078125 1.66125 Q 0.8625069580078125 1.6346249999999998 0.8610069580078126 1.6016249999999999 Q 0.8595069580078125 1.549875 0.8418819580078125 1.5176249999999998 Q 0.8242569580078125 1.485375 0.7950069580078125 1.4703749999999998 Q 0.7657569580078125 1.4553749999999999 0.7282569580078125 1.4553749999999999 Q 0.6907569580078126 1.4553749999999999 0.6615069580078126 1.4703749999999998 Q 0.6322569580078126 1.485375 0.6146319580078126 1.5176249999999998 Q 0.5970069580078126 1.549875 0.5947569580078125 1.6016249999999999 Q 0.5940069580078124 1.6346249999999998 0.5940069580078124 1.66125 Q 0.5940069580078124 1.6878749999999998 0.5947569580078125 1.721625 Q 0.5977569580078125 1.7988749999999998 0.6345069580078125 1.8333749999999998 Q 0.6712569580078125 1.867875 0.7282569580078125 1.867875 M 1.0717584228515626 1.9241249999999999 Q 1.0635084228515626 1.9241249999999999 1.0590084228515626 1.91925 Q 1.0545084228515627 1.914375 1.0545084228515627 1.9068749999999999 L 1.0545084228515627 1.416375 Q 1.0545084228515627 1.4088749999999999 1.0590084228515626 1.404 Q 1.0635084228515626 1.3991249999999997 1.0717584228515626 1.3991249999999997 L 1.1115084228515626 1.3991249999999997 Q 1.1190084228515627 1.3991249999999997 1.1238834228515626 1.404 Q 1.1287584228515626 1.4088749999999999 1.1287584228515626 1.416375 L 1.1287584228515626 1.8588749999999998 L 1.3777584228515627 1.8588749999999998 Q 1.3860084228515626 1.8588749999999998 1.3908834228515627 1.8637499999999998 Q 1.3957584228515627 1.8686249999999998 1.3957584228515627 1.8768749999999998 L 1.3957584228515627 1.9068749999999999 Q 1.3957584228515627 1.914375 1.3908834228515627 1.91925 Q 1.3860084228515626 1.9241249999999999 1.3777584228515627 1.9241249999999999 L 1.0717584228515626 1.9241249999999999 M 1.6694780273437502 1.931625 Q 1.6064780273437502 1.931625 1.5611030273437503 1.909125 Q 1.5157280273437501 1.8866249999999998 1.49135302734375 1.8404999999999998 Q 1.4669780273437503 1.7943749999999998 1.4669780273437503 1.721625 L 1.4669780273437503 1.417125 Q 1.4669780273437503 1.4088749999999999 1.4714780273437502 1.404 Q 1.4759780273437502 1.3991249999999997 1.4842280273437503 1.3991249999999997 L 1.5224780273437502 1.3991249999999997 Q 1.5307280273437502 1.3991249999999997 1.5356030273437502 1.404 Q 1.5404780273437502 1.4088749999999999 1.5404780273437502 1.417125 L 1.5404780273437502 1.7231249999999998 Q 1.5404780273437502 1.796625 1.5749780273437501 1.831875 Q 1.6094780273437501 1.867125 1.6694780273437502 1.867125 Q 1.7287280273437502 1.867125 1.7636030273437502 1.831875 Q 1.7984780273437502 1.796625 1.7984780273437502 1.7231249999999998 L 1.7984780273437502 1.417125 Q 1.7984780273437502 1.4088749999999999 1.8033530273437501 1.404 Q 1.80822802734375 1.3991249999999997 1.8157280273437502 1.3991249999999997 L 1.85472802734375 1.3991249999999997 Q 1.8622280273437501 1.3991249999999997 1.86710302734375 1.404 Q 1.8719780273437503 1.4088749999999999 1.8719780273437503 1.417125 L 1.8719780273437503 1.721625 Q 1.8719780273437503 1.7943749999999998 1.8476030273437503 1.8404999999999998 Q 1.8232280273437502 1.8866249999999998 1.7782280273437503 1.909125 Q 1.7332280273437501 1.931625 1.6694780273437502 1.931625 M 2.1367196044921877 1.9241249999999999 Q 2.129219604492188 1.9241249999999999 2.1243446044921876 1.91925 Q 2.119469604492188 1.914375 2.119469604492188 1.9068749999999999 L 2.119469604492188 1.4658749999999998 L 1.9754696044921878 1.4658749999999998 Q 1.9679696044921877 1.4658749999999998 1.9630946044921878 1.4609999999999999 Q 1.9582196044921878 1.456125 1.9582196044921878 1.4486249999999998 L 1.9582196044921878 1.417125 Q 1.9582196044921878 1.4088749999999999 1.9630946044921878 1.404 Q 1.9679696044921877 1.3991249999999997 1.9754696044921878 1.3991249999999997 L 2.3369696044921877 1.3991249999999997 Q 2.3452196044921876 1.3991249999999997 2.3500946044921878 1.404 Q 2.354969604492188 1.4088749999999999 2.354969604492188 1.417125 L 2.354969604492188 1.4486249999999998 Q 2.354969604492188 1.456125 2.3500946044921878 1.4609999999999999 Q 2.3452196044921876 1.4658749999999998 2.3369696044921877 1.4658749999999998 L 2.1937196044921876 1.4658749999999998 L 2.1937196044921876 1.9068749999999999 Q 2.1937196044921876 1.914375 2.188844604492188 1.91925 Q 2.1839696044921877 1.9241249999999999 2.175719604492188 1.9241249999999999 L 2.1367196044921877 1.9241249999999999 M 2.4637042236328126 1.9241249999999999 Q 2.4554542236328127 1.9241249999999999 2.4509542236328126 1.91925 Q 2.4464542236328124 1.914375 2.4464542236328124 1.9068749999999999 L 2.4464542236328124 1.416375 Q 2.4464542236328124 1.4088749999999999 2.4509542236328126 1.404 Q 2.4554542236328127 1.3991249999999997 2.4637042236328126 1.3991249999999997 L 2.503454223632813 1.3991249999999997 Q 2.5117042236328126 1.3991249999999997 2.516204223632813 1.404 Q 2.5207042236328125 1.4088749999999999 2.5207042236328125 1.416375 L 2.5207042236328125 1.9068749999999999 Q 2.5207042236328125 1.914375 2.516204223632813 1.91925 Q 2.5117042236328126 1.9241249999999999 2.503454223632813 1.9241249999999999 L 2.4637042236328126 1.9241249999999999 M 2.8477119140625 1.931625 Q 2.7832119140625 1.931625 2.7374619140625 1.9094999999999998 Q 2.6917119140625 1.8873749999999998 2.6669619140625 1.8412499999999998 Q 2.6422119140625 1.7951249999999999 2.6392119140625 1.7253749999999999 Q 2.6384619140625 1.6923749999999997 2.6384619140625 1.662 Q 2.6384619140625 1.6316249999999999 2.6392119140625 1.5986249999999997 Q 2.6422119140625 1.5296249999999998 2.6680869140625 1.4834999999999998 Q 2.6939619140624997 1.4373749999999998 2.7400869140625 1.4144999999999999 Q 2.7862119140625 1.391625 2.8477119140625 1.391625 Q 2.9084619140625 1.391625 2.9545869140625 1.4144999999999999 Q 3.0007119140625 1.4373749999999998 3.0269619140625 1.4834999999999998 Q 3.0532119140625 1.5296249999999998 3.0554619140625 1.5986249999999997 Q 3.0569619140624997 1.6316249999999999 3.0569619140624997 1.662 Q 3.0569619140624997 1.6923749999999997 3.0554619140625 1.7253749999999999 Q 3.0532119140625 1.7951249999999999 3.0280869140625 1.8412499999999998 Q 3.0029619140625 1.8873749999999998 2.9572119140625 1.9094999999999998 Q 2.9114619140625 1.931625 2.8477119140625 1.931625 M 2.8477119140625 1.867875 Q 2.9047119140625 1.867875 2.9410869140625 1.8333749999999998 Q 2.9774619140625 1.7988749999999998 2.9804619140625 1.721625 Q 2.9819619140625 1.6878749999999998 2.9819619140625 1.66125 Q 2.9819619140625 1.6346249999999998 2.9804619140625 1.6016249999999999 Q 2.9789619140625 1.549875 2.9613369140625 1.5176249999999998 Q 2.9437119140625 1.485375 2.9144619140625 1.4703749999999998 Q 2.8852119140625 1.4553749999999999 2.8477119140625 1.4553749999999999 Q 2.8102119140625 1.4553749999999999 2.7809619140625 1.4703749999999998 Q 2.7517119140624997 1.485375 2.7340869140625 1.5176249999999998 Q 2.7164619140625 1.549875 2.7142119140625 1.6016249999999999 Q 2.7134619140625 1.6346249999999998 2.7134619140625 1.66125 Q 2.7134619140625 1.6878749999999998 2.7142119140625 1.721625 Q 2.7172119140624997 1.7988749999999998 2.7539619140625 1.8333749999999998 Q 2.7907119140625 1.867875 2.8477119140625 1.867875 M 3.1912133789062502 1.9241249999999999 Q 3.1829633789062504 1.9241249999999999 3.17846337890625 1.91925 Q 3.17396337890625 1.914375 3.17396337890625 1.9068749999999999 L 3.17396337890625 1.417125 Q 3.17396337890625 1.4088749999999999 3.17846337890625 1.404 Q 3.1829633789062504 1.3991249999999997 3.1912133789062502 1.3991249999999997 L 3.22571337890625 1.3991249999999997 Q 3.23471337890625 1.3991249999999997 3.2392133789062503 1.4032499999999999 Q 3.24371337890625 1.4073749999999998 3.24446337890625 1.409625 L 3.49346337890625 1.792125 L 3.49346337890625 1.417125 Q 3.49346337890625 1.4088749999999999 3.4979633789062503 1.404 Q 3.50246337890625 1.3991249999999997 3.5107133789062503 1.3991249999999997 L 3.5467133789062504 1.3991249999999997 Q 3.5549633789062502 1.3991249999999997 3.5598383789062504 1.404 Q 3.56471337890625 1.4088749999999999 3.56471337890625 1.417125 L 3.56471337890625 1.9061249999999998 Q 3.56471337890625 1.913625 3.5598383789062504 1.9188749999999999 Q 3.5549633789062502 1.9241249999999999 3.5474633789062504 1.9241249999999999 L 3.5114633789062504 1.9241249999999999 Q 3.50321337890625 1.9241249999999999 3.4990883789062504 1.919625 Q 3.49496337890625 1.915125 3.49346337890625 1.913625 L 3.24521337890625 1.534875 L 3.24521337890625 1.9068749999999999 Q 3.24521337890625 1.914375 3.2403383789062503 1.91925 Q 3.23546337890625 1.9241249999999999 3.2272133789062503 1.9241249999999999 L 3.1912133789062502 1.9241249999999999" fill="#67a97b" fill-rule="nonzero"></path></g><g clip-path="url(&quot;#SvgjsClipPath1001&quot;)"><g clip-path="url(&quot;#SvgjsClipPath10006a9bb2ca-47cc-44f3-b5fe-649050f480db&quot;)"><path d=" M -0.6955605511976859 0.24860338870498971 C -0.8843686422865618 0.05874726411826724 -1.1412855323617408 -0.04768092516153694 -1.409041614405292 -0.046957162492696436 C -1.676797696448843 -0.04768092516153694 -1.9337145865240235 0.05874726411826724 -2.122522677612898 0.24860338870498971 C -2.3123751381291315 0.4374103851732326 -2.4187893972727674 0.6943318122038683 -2.4180393249853926 0.9620844519125943 C -2.4180393249853926 0.9632698551928 -2.4180393249853926 0.9644113546478129 -2.4180393249853926 0.9655967579280172 L -2.4180393249853926 0.9678797568380416 C -2.4172586934671854 1.2336172925618523 -2.3109788139998715 1.4881678686589677 -2.122566581438086 1.6755655151202071 C -1.93375402547889 1.8654096797386717 -1.6768362234032281 1.971822437462583 -1.409085518230486 1.9710821624926962 C -1.1413348130577425 1.971822437462583 -0.8844170109820806 1.8654096797386717 -0.6956044550228773 1.6755655151202031 C -0.507192222461095 1.488167868658962 -0.4009123429937844 1.2336172925618452 -0.400131711475578 0.9678797568380416 L -0.400131711475578 0.9664748344318722 L -0.400131711475578 0.9655967579280172 C -0.400131711475578 0.9644113546478129 -0.400131711475578 0.9632698551928 -0.400131711475578 0.9620844519125943 C -0.3993633089554707 0.6943454677631551 -0.5057444530401727 0.43742765344890855 -0.695560551197673 0.2486033887050026 Z M -1.6851966748677762 0.07246124203162144 C -1.7412649716838944 0.12640545301723435 -1.7886555304011358 0.1886944186312076 -1.8256889154846205 0.2571207307923849 C -1.932980435635346 0.46434079465266176 -1.988889228364093 0.6943152065422851 -1.9887038184253532 0.9276638529614686 L -2.339934419967464 0.9276638529614686 C -2.324796885006056 0.5327143337156169 -2.0625146846142943 0.19012766561187175 -1.6851966748677776 0.07246124203162144 Z M -2.3393636702399596 1.0052858159022757 L -1.9881330686978473 1.0052858159022757 C -1.9871490605072544 1.2356574833592693 -1.9313302352798665 1.4624844808861446 -1.8252937810578842 1.6670042692076192 C -1.788272274618935 1.73543824870965 -1.7408803954034413 1.797728949953513 -1.6848015404410428 1.85166375796838 C -2.0591099349248903 1.7350250561529559 -2.32062580275367 1.3968960890165905 -2.3394075740651505 1.005285815902277 Z M -1.4478086920505029 1.8906064509143605 C -1.5633635599578586 1.8738790935159164 -1.672201142610719 1.7825591371149678 -1.7577257940862228 1.6292030757166431 C -1.8573697251583536 1.4362643064509206 -1.9098078256063895 1.2224342216684105 -1.910730624883007 1.005285815902273 L -1.4478086920505029 1.005285815902273 Z M -1.4478086920505029 0.92766385296147 L -1.910994047834162 0.92766385296147 C -1.9112272919554356 0.7075398708649799 -1.8587000659921957 0.49056584375635903 -1.7578136017365638 0.29492192428327346 C -1.6722889502611031 0.141565862885032 -1.5634513676082427 0.050289810309274874 -1.4478964997008883 0.03351854908563959 Z M -1.370186729109697 0.03351854908563959 C -1.2546318612023413 0.050289810309274874 -1.1457942785494808 0.141565862885032 -1.0602696270739769 0.2949219242833566 C -0.9593638301020702 0.49055863667896094 -0.9068354484356309 0.7075374376467839 -0.9070891809764245 0.9276638529614715 L -1.370186729109697 0.9276638529614715 Z M -1.370186729109697 1.8906503547395532 L -1.370186729109697 1.0052858159022757 L -0.9072647962771943 1.0052858159022757 C -0.908187595553813 1.2224342216684438 -0.9606256960018544 1.4362643064509522 -1.0602696270739898 1.6292030757166733 C -1.145838182374672 1.7825591371149678 -1.2546757650275353 1.8738790935159164 -1.3702306329348897 1.8906064509143605 Z M -1.1328426501176148 1.8517076617935713 C -1.076763795155215 1.7977728537787057 -1.0293719159397212 1.735482152534841 -0.9923504095007705 1.6670481730328048 C -0.8863139552787882 1.4625283847113315 -0.8304951300514019 1.2357013871844549 -0.8295111218608089 1.0053297197274684 L -0.47828052031869817 1.0053297197274684 C -0.49708026898574387 1.396923583108923 -0.7585927056203419 1.7350305744573555 -1.1328865539428075 1.8516637579683786 Z M -0.829467218035616 0.9277077567866628 C -0.829281808096866 0.6943591103675553 -0.8851906008256005 0.4643846984779305 -0.9924821209763144 0.2571646346176465 C -1.0295155060598333 0.18873832245640176 -1.076906064777075 0.12644935684242856 -1.132974361593193 0.07250514585681561 C -0.7557256173227216 0.19023255471243056 -0.4935244506806902 0.5328052641510339 -0.47841223179427583 0.9277077567866628 Z" fill="url(#gradient-0feceb4b-0072-4404-bbc2-385c9d643109_0)" transform="matrix(1,0,0,1,0,0)" fill-rule="nonzero"></path></g></g></g><defs><clipPath id="SvgjsClipPath1001"><path d=" M -2.4180393249853926 -0.046957162492696436 h 2.0180393249853927 v 2.0180393249853927 h -2.0180393249853927 Z"></path></clipPath><clipPath id="SvgjsClipPath10006a9bb2ca-47cc-44f3-b5fe-649050f480db"><path d=" M -2.4180393249853926 -0.046957162492696436 L -0.3999999999999999 -0.046957162492696436 L -0.3999999999999999 1.9710821624926962 L -2.4180393249853926 1.9710821624926962 Z"></path></clipPath><linearGradient id="gradient-0feceb4b-0072-4404-bbc2-385c9d643109_0" x1="0" x2="1" y1="0" y2="1"><stop stop-color="#a4c868" offset="0"></stop><stop stop-color="#1c3423" offset="1"></stop></linearGradient></defs></svg>